M48
; DRILL file {KiCad (6.0.0)} date Sun Nov  6 23:16:21 2022
; FORMAT={-:-/ absolute / inch / decimal}
; #@! TF.CreationDate,2022-11-06T23:16:21-06:00
; #@! TF.GenerationSoftware,Kicad,Pcbnew,(6.0.0)
; #@! TF.FileFunction,Plated,1,2,PTH
FMAT,2
INCH
; #@! TA.AperFunction,Plated,PTH,ViaDrill
T1C0.0138
; #@! TA.AperFunction,Plated,PTH,ComponentDrill
T2C0.0138
; #@! TA.AperFunction,Plated,PTH,ComponentDrill
T3C0.0236
; #@! TA.AperFunction,Plated,PTH,ComponentDrill
T4C0.0394
; #@! TA.AperFunction,Plated,PTH,ComponentDrill
T5C0.0433
%
G90
G05
T1
X1.93Y-2.765
X2.7Y-2.425
X3.77Y-2.325
X4.5335Y-2.2559
X4.6378Y-2.2559
X4.695Y-2.635
X4.752Y-1.7382
X4.752Y-1.998
X4.8051Y-1.5827
X4.925Y-1.8976
X4.9252Y-1.7323
X4.998Y-2.1772
X5.0236Y-2.3406
X5.0256Y-2.0965
X5.0453Y-2.2441
X5.0925Y-1.3701
X5.1417Y-1.5177
X5.1437Y-2.0669
X5.1772Y-2.3661
X5.1831Y-1.5433
X5.1831Y-1.6555
X5.2165Y-1.9491
X5.2224Y-1.7813
X5.2323Y-2.1555
X5.2362Y-2.0472
X5.2835Y-2.3327
X5.2913Y-2.1181
X5.3091Y-1.5433
X5.313Y-2.2205
X5.3504Y-1.5886
X5.4567Y-1.9055
X5.4606Y-1.7087
X5.4606Y-1.75
X5.52Y-4.83
X5.54Y-4.075
X5.5512Y-1.628
X5.685Y-5.225
X5.74Y-1.745
X5.7697Y-1.4173
X5.7756Y-1.6654
X5.8366Y-1.3346
X5.98Y-3.545
X6.035Y-2.77
X6.04Y-2.685
X6.22Y-2.315
X7.02Y-3.1
X7.25Y-1.865
X8.16Y-3.105
X8.38Y-1.855
X9.31Y-3.11
X9.375Y-2.275
X9.405Y-3.495
X9.525Y-1.87
T2
X5.1407Y-1.8159
X5.1407Y-1.8661
X5.1407Y-1.9163
X5.1909Y-1.8159
X5.1909Y-1.8661
X5.1909Y-1.9163
X5.2411Y-1.8159
X5.2411Y-1.8661
X5.2411Y-1.9163
T4
X4.1225Y-3.5927
X4.2225Y-3.5927
X4.3225Y-3.5927
X4.4225Y-3.5927
T5
X2.185Y-1.437
X2.185Y-1.6929
X2.3622Y-1.437
X2.3622Y-1.6929
X2.5787Y-1.437
X2.5787Y-1.6929
X2.7559Y-1.437
X2.7559Y-1.6929
X2.9724Y-1.437
X2.9724Y-1.6929
X3.1496Y-1.437
X3.1496Y-1.6929
X3.4843Y-1.437
X3.4843Y-1.6929
X3.6614Y-1.437
X3.6614Y-1.6929
X3.878Y-1.437
X3.878Y-1.6929
X4.0551Y-1.437
X4.0551Y-1.6929
X4.2717Y-1.437
X4.2717Y-1.6929
X4.4488Y-1.437
X4.4488Y-1.6929
T3
G00X5.5386Y-1.0787
M15
G01X5.5386Y-1.0551
M16
G05
G00X5.5386Y-1.2531
M15
G01X5.5386Y-1.2098
M16
G05
G00X5.8787Y-1.0787
M15
G01X5.8787Y-1.0551
M16
G05
G00X5.8787Y-1.2531
M15
G01X5.8787Y-1.2098
M16
G05
T0
M30
