%TF.GenerationSoftware,KiCad,Pcbnew,(6.0.0)*%
%TF.CreationDate,2022-11-06T23:16:27-06:00*%
%TF.ProjectId,Flatbox-rev4,466c6174-626f-4782-9d72-6576342e6b69,rev?*%
%TF.SameCoordinates,Original*%
%TF.FileFunction,Profile,NP*%
%FSLAX46Y46*%
G04 Gerber Fmt 4.6, Leading zero omitted, Abs format (unit mm)*
G04 Created by KiCad (PCBNEW (6.0.0)) date 2022-11-06 23:16:27*
%MOMM*%
%LPD*%
G01*
G04 APERTURE LIST*
%TA.AperFunction,Profile*%
%ADD10C,0.050000*%
%TD*%
%TA.AperFunction,Profile*%
%ADD11C,0.120000*%
%TD*%
G04 APERTURE END LIST*
D10*
X150500000Y-25500000D02*
X150500000Y-29000000D01*
X45000000Y-30000000D02*
X138500000Y-30000000D01*
X250000000Y-35000000D02*
X250000000Y-145000000D01*
X245000000Y-150000000D02*
X45000000Y-150000000D01*
X40000000Y-145000000D02*
X40000000Y-35000000D01*
X151500000Y-30000000D02*
X245000000Y-30000000D01*
X138500000Y-30000000D02*
G75*
G03*
X139500000Y-29000000I1J999999D01*
G01*
X250000000Y-35000000D02*
G75*
G03*
X245000000Y-30000000I-5000000J0D01*
G01*
X245000000Y-150000000D02*
G75*
G03*
X250000000Y-145000000I0J5000000D01*
G01*
X150500000Y-29000000D02*
G75*
G03*
X151500000Y-30000000I999999J-1D01*
G01*
X45000000Y-30000000D02*
G75*
G03*
X40000000Y-35000000I0J-5000000D01*
G01*
X40000000Y-145000000D02*
G75*
G03*
X45000000Y-150000000I5000000J0D01*
G01*
X139500000Y-25500000D02*
X150500000Y-25500000D01*
X139500000Y-29000000D02*
X139500000Y-25500000D01*
D11*
X129745000Y-132866000D02*
X129745000Y-135866000D01*
X129745000Y-135866000D02*
X133145000Y-135866000D01*
X133145000Y-135866000D02*
X133145000Y-132866000D01*
X133145000Y-132866000D02*
X129745000Y-132866000D01*
X144956000Y-99338000D02*
X141556000Y-99338000D01*
X144956000Y-102338000D02*
X144956000Y-99338000D01*
X141556000Y-102338000D02*
X144956000Y-102338000D01*
X141556000Y-99338000D02*
X141556000Y-102338000D01*
X226011000Y-88289000D02*
X226011000Y-91289000D01*
X226011000Y-91289000D02*
X229411000Y-91289000D01*
X229411000Y-88289000D02*
X226011000Y-88289000D01*
X229411000Y-91289000D02*
X229411000Y-88289000D01*
X168099000Y-91289000D02*
X171499000Y-91289000D01*
X171499000Y-88289000D02*
X168099000Y-88289000D01*
X171499000Y-91289000D02*
X171499000Y-88289000D01*
X168099000Y-88289000D02*
X168099000Y-91289000D01*
X197055000Y-88289000D02*
X197055000Y-91289000D01*
X200455000Y-91289000D02*
X200455000Y-88289000D01*
X200455000Y-88289000D02*
X197055000Y-88289000D01*
X197055000Y-91289000D02*
X200455000Y-91289000D01*
X231599000Y-59920000D02*
X234999000Y-59920000D01*
X234999000Y-56920000D02*
X231599000Y-56920000D01*
X234999000Y-59920000D02*
X234999000Y-56920000D01*
X231599000Y-56920000D02*
X231599000Y-59920000D01*
X177214000Y-56793000D02*
X173814000Y-56793000D01*
X177214000Y-59793000D02*
X177214000Y-56793000D01*
X173814000Y-59793000D02*
X177214000Y-59793000D01*
X173814000Y-56793000D02*
X173814000Y-59793000D01*
X206043000Y-59666000D02*
X206043000Y-56666000D01*
X202643000Y-56666000D02*
X202643000Y-59666000D01*
X206043000Y-56666000D02*
X202643000Y-56666000D01*
X202643000Y-59666000D02*
X206043000Y-59666000D01*
X89076000Y-68350000D02*
X85676000Y-68350000D01*
X89076000Y-71350000D02*
X89076000Y-68350000D01*
X85676000Y-71350000D02*
X89076000Y-71350000D01*
X85676000Y-68350000D02*
X85676000Y-71350000D01*
X150544000Y-71350000D02*
X150544000Y-68350000D01*
X150544000Y-68350000D02*
X147144000Y-68350000D01*
X147144000Y-71350000D02*
X150544000Y-71350000D01*
X147144000Y-68350000D02*
X147144000Y-71350000D01*
X59866000Y-71223000D02*
X59866000Y-68223000D01*
X56466000Y-71223000D02*
X59866000Y-71223000D01*
X56466000Y-68223000D02*
X56466000Y-71223000D01*
X59866000Y-68223000D02*
X56466000Y-68223000D01*
X115619000Y-79780000D02*
X112219000Y-79780000D01*
X112219000Y-79780000D02*
X112219000Y-82780000D01*
X112219000Y-82780000D02*
X115619000Y-82780000D01*
X115619000Y-82780000D02*
X115619000Y-79780000D01*
M02*
