%TF.GenerationSoftware,KiCad,Pcbnew,(6.0.0)*%
%TF.CreationDate,2022-11-06T23:16:27-06:00*%
%TF.ProjectId,Flatbox-rev4,466c6174-626f-4782-9d72-6576342e6b69,rev?*%
%TF.SameCoordinates,Original*%
%TF.FileFunction,Soldermask,Top*%
%TF.FilePolarity,Negative*%
%FSLAX46Y46*%
G04 Gerber Fmt 4.6, Leading zero omitted, Abs format (unit mm)*
G04 Created by KiCad (PCBNEW (6.0.0)) date 2022-11-06 23:16:27*
%MOMM*%
%LPD*%
G01*
G04 APERTURE LIST*
G04 Aperture macros list*
%AMRoundRect*
0 Rectangle with rounded corners*
0 $1 Rounding radius*
0 $2 $3 $4 $5 $6 $7 $8 $9 X,Y pos of 4 corners*
0 Add a 4 corners polygon primitive as box body*
4,1,4,$2,$3,$4,$5,$6,$7,$8,$9,$2,$3,0*
0 Add four circle primitives for the rounded corners*
1,1,$1+$1,$2,$3*
1,1,$1+$1,$4,$5*
1,1,$1+$1,$6,$7*
1,1,$1+$1,$8,$9*
0 Add four rect primitives between the rounded corners*
20,1,$1+$1,$2,$3,$4,$5,0*
20,1,$1+$1,$4,$5,$6,$7,0*
20,1,$1+$1,$6,$7,$8,$9,0*
20,1,$1+$1,$8,$9,$2,$3,0*%
G04 Aperture macros list end*
%ADD10O,1.600000X2.000000*%
%ADD11C,3.000000*%
%ADD12C,1.701800*%
%ADD13C,3.987800*%
%ADD14C,3.429000*%
%ADD15C,0.990600*%
%ADD16C,6.400000*%
%ADD17C,2.000000*%
%ADD18RoundRect,0.135000X-0.185000X0.135000X-0.185000X-0.135000X0.185000X-0.135000X0.185000X0.135000X0*%
%ADD19C,0.650000*%
%ADD20R,0.600000X1.450000*%
%ADD21R,0.300000X1.450000*%
%ADD22O,1.000000X1.600000*%
%ADD23O,1.000000X2.100000*%
%ADD24RoundRect,0.135000X0.135000X0.185000X-0.135000X0.185000X-0.135000X-0.185000X0.135000X-0.185000X0*%
%ADD25RoundRect,0.140000X0.170000X-0.140000X0.170000X0.140000X-0.170000X0.140000X-0.170000X-0.140000X0*%
%ADD26RoundRect,0.140000X-0.140000X-0.170000X0.140000X-0.170000X0.140000X0.170000X-0.140000X0.170000X0*%
%ADD27RoundRect,0.140000X-0.170000X0.140000X-0.170000X-0.140000X0.170000X-0.140000X0.170000X0.140000X0*%
%ADD28RoundRect,0.135000X-0.135000X-0.185000X0.135000X-0.185000X0.135000X0.185000X-0.135000X0.185000X0*%
%ADD29R,1.400000X1.600000*%
%ADD30R,1.060000X0.650000*%
%ADD31RoundRect,0.150000X-0.650000X-0.150000X0.650000X-0.150000X0.650000X0.150000X-0.650000X0.150000X0*%
%ADD32RoundRect,0.050000X-0.387500X-0.050000X0.387500X-0.050000X0.387500X0.050000X-0.387500X0.050000X0*%
%ADD33RoundRect,0.050000X-0.050000X-0.387500X0.050000X-0.387500X0.050000X0.387500X-0.050000X0.387500X0*%
%ADD34RoundRect,0.144000X-1.456000X-1.456000X1.456000X-1.456000X1.456000X1.456000X-1.456000X1.456000X0*%
%ADD35R,1.200000X1.400000*%
%ADD36RoundRect,0.140000X0.140000X0.170000X-0.140000X0.170000X-0.140000X-0.170000X0.140000X-0.170000X0*%
%ADD37RoundRect,0.135000X0.185000X-0.135000X0.185000X0.135000X-0.185000X0.135000X-0.185000X-0.135000X0*%
G04 APERTURE END LIST*
D10*
X112331000Y-91254000D03*
X109791000Y-91254000D03*
X107251000Y-91254000D03*
X104711000Y-91254000D03*
D11*
X87320000Y-59220000D03*
D12*
X82240000Y-65170000D03*
D11*
X89860000Y-60090000D03*
X83510000Y-62630000D03*
D13*
X87320000Y-65170000D03*
D12*
X92820000Y-65170000D03*
X92400000Y-65170000D03*
D11*
X92320000Y-61420000D03*
D14*
X87320000Y-65170000D03*
D15*
X82100000Y-69370000D03*
D12*
X81820000Y-65170000D03*
X108840000Y-76520000D03*
D11*
X118920000Y-72770000D03*
D12*
X119000000Y-76520000D03*
D11*
X116460000Y-71440000D03*
X110110000Y-73980000D03*
D15*
X108700000Y-80720000D03*
D14*
X113920000Y-76520000D03*
D12*
X108420000Y-76520000D03*
X119420000Y-76520000D03*
D13*
X113920000Y-76520000D03*
D11*
X113920000Y-70570000D03*
X127610000Y-127080000D03*
D15*
X126200000Y-133820000D03*
D11*
X133960000Y-124540000D03*
D12*
X125920000Y-129620000D03*
D14*
X131420000Y-129620000D03*
D13*
X131420000Y-129620000D03*
D12*
X126340000Y-129620000D03*
X136920000Y-129620000D03*
X136500000Y-129620000D03*
D11*
X131420000Y-123670000D03*
X136420000Y-125870000D03*
D12*
X153940000Y-65110000D03*
D11*
X148860000Y-59160000D03*
D15*
X143640000Y-69310000D03*
D12*
X154360000Y-65110000D03*
D13*
X148860000Y-65110000D03*
D11*
X151400000Y-60030000D03*
D12*
X143360000Y-65110000D03*
D11*
X145050000Y-62570000D03*
X153860000Y-61360000D03*
D12*
X143780000Y-65110000D03*
D14*
X148860000Y-65110000D03*
D11*
X177960000Y-48500000D03*
D12*
X169920000Y-53580000D03*
D15*
X170200000Y-57780000D03*
D14*
X175420000Y-53580000D03*
D11*
X175420000Y-47630000D03*
D13*
X175420000Y-53580000D03*
D11*
X171610000Y-51040000D03*
D12*
X170340000Y-53580000D03*
X180500000Y-53580000D03*
X180920000Y-53580000D03*
D11*
X180420000Y-49830000D03*
D15*
X199170000Y-57660000D03*
D13*
X204390000Y-53460000D03*
D11*
X204390000Y-47510000D03*
X206930000Y-48380000D03*
X200580000Y-50920000D03*
D14*
X204390000Y-53460000D03*
D12*
X209890000Y-53460000D03*
X198890000Y-53460000D03*
X209470000Y-53460000D03*
X199310000Y-53460000D03*
D11*
X209390000Y-49710000D03*
X238360000Y-49950000D03*
X233360000Y-47750000D03*
D13*
X233360000Y-53700000D03*
D11*
X235900000Y-48620000D03*
X229550000Y-51160000D03*
D14*
X233360000Y-53700000D03*
D12*
X227860000Y-53700000D03*
X238440000Y-53700000D03*
X238860000Y-53700000D03*
X228280000Y-53700000D03*
D15*
X228140000Y-57900000D03*
D11*
X148250000Y-92400000D03*
D12*
X148750000Y-96150000D03*
D13*
X143250000Y-96150000D03*
D12*
X137750000Y-96150000D03*
D11*
X143250000Y-90200000D03*
D15*
X138030000Y-100350000D03*
D12*
X138170000Y-96150000D03*
X148330000Y-96150000D03*
D14*
X143250000Y-96150000D03*
D11*
X139440000Y-93610000D03*
X145790000Y-91070000D03*
X174860000Y-81290000D03*
D13*
X169860000Y-85040000D03*
D14*
X169860000Y-85040000D03*
D11*
X172400000Y-79960000D03*
D12*
X174940000Y-85040000D03*
X164780000Y-85040000D03*
D11*
X169860000Y-79090000D03*
D15*
X164640000Y-89240000D03*
D11*
X166050000Y-82500000D03*
D12*
X175360000Y-85040000D03*
X164360000Y-85040000D03*
D11*
X194900000Y-82500000D03*
D12*
X203790000Y-85040000D03*
D11*
X203710000Y-81290000D03*
D13*
X198710000Y-85040000D03*
D12*
X193210000Y-85040000D03*
D15*
X193490000Y-89240000D03*
D11*
X198710000Y-79090000D03*
D14*
X198710000Y-85040000D03*
D12*
X204210000Y-85040000D03*
X193630000Y-85040000D03*
D11*
X201250000Y-79960000D03*
D14*
X227920000Y-85040000D03*
D12*
X222840000Y-85040000D03*
D11*
X230460000Y-79960000D03*
D12*
X222420000Y-85040000D03*
D13*
X227920000Y-85040000D03*
D12*
X233420000Y-85040000D03*
D15*
X222700000Y-89240000D03*
D11*
X224110000Y-82500000D03*
X232920000Y-81290000D03*
D12*
X233000000Y-85040000D03*
D11*
X227920000Y-79090000D03*
D16*
X47000000Y-37000000D03*
X47000000Y-143000000D03*
X243000000Y-143000000D03*
X243000000Y-37000000D03*
D15*
X53005000Y-69250000D03*
D12*
X53145000Y-65050000D03*
D13*
X58225000Y-65050000D03*
D11*
X58225000Y-59100000D03*
X63225000Y-61300000D03*
X54415000Y-62510000D03*
D12*
X52725000Y-65050000D03*
X63725000Y-65050000D03*
D11*
X60765000Y-59970000D03*
D14*
X58225000Y-65050000D03*
D12*
X63305000Y-65050000D03*
D16*
X156600000Y-37000000D03*
D17*
X88500000Y-43000000D03*
X88500000Y-36500000D03*
X93000000Y-43000000D03*
X93000000Y-36500000D03*
X65500000Y-43000000D03*
X65500000Y-36500000D03*
X70000000Y-36500000D03*
X70000000Y-43000000D03*
X98500000Y-36500000D03*
X98500000Y-43000000D03*
X103000000Y-36500000D03*
X103000000Y-43000000D03*
X55500000Y-36500000D03*
X55500000Y-43000000D03*
X60000000Y-43000000D03*
X60000000Y-36500000D03*
X75500000Y-43000000D03*
X75500000Y-36500000D03*
X80000000Y-36500000D03*
X80000000Y-43000000D03*
X108500000Y-36500000D03*
X108500000Y-43000000D03*
X113000000Y-36500000D03*
X113000000Y-43000000D03*
D16*
X133500000Y-78000000D03*
X150000000Y-143000000D03*
D18*
X146550000Y-33990000D03*
X146550000Y-35010000D03*
D19*
X147890000Y-30750000D03*
X142110000Y-30750000D03*
D20*
X148250000Y-32195000D03*
X147450000Y-32195000D03*
D21*
X146750000Y-32195000D03*
X146250000Y-32195000D03*
X145750000Y-32195000D03*
X145250000Y-32195000D03*
X144750000Y-32195000D03*
X144250000Y-32195000D03*
X143750000Y-32195000D03*
X143250000Y-32195000D03*
D20*
X142550000Y-32195000D03*
X141750000Y-32195000D03*
D22*
X140680000Y-27100000D03*
X149320000Y-27100000D03*
D23*
X149320000Y-31280000D03*
X140680000Y-31280000D03*
D24*
X142660000Y-34050000D03*
X141640000Y-34050000D03*
D25*
X145800000Y-43230000D03*
X145800000Y-42270000D03*
D26*
X129420000Y-54600000D03*
X130380000Y-54600000D03*
D25*
X141000000Y-43230000D03*
X141000000Y-42270000D03*
D26*
X127270000Y-34800000D03*
X128230000Y-34800000D03*
D25*
X130600000Y-40580000D03*
X130600000Y-39620000D03*
D27*
X133450000Y-52820000D03*
X133450000Y-53780000D03*
D25*
X134850000Y-41180000D03*
X134850000Y-40220000D03*
X131650000Y-41180000D03*
X131650000Y-40220000D03*
X135900000Y-42180000D03*
X135900000Y-41220000D03*
D26*
X136620000Y-44450000D03*
X137580000Y-44450000D03*
X136620000Y-43400000D03*
X137580000Y-43400000D03*
D18*
X121650000Y-43090000D03*
X121650000Y-44110000D03*
D28*
X117490000Y-36400000D03*
X118510000Y-36400000D03*
D18*
X133780000Y-40190000D03*
X133780000Y-41210000D03*
D29*
X115150000Y-53050000D03*
X115150000Y-61050000D03*
X110650000Y-53050000D03*
X110650000Y-61050000D03*
D30*
X144500000Y-43200000D03*
X144500000Y-42250000D03*
X144500000Y-41300000D03*
X142300000Y-41300000D03*
X142300000Y-43200000D03*
D31*
X120450000Y-36395000D03*
X120450000Y-37665000D03*
X120450000Y-38935000D03*
X120450000Y-40205000D03*
X127650000Y-40205000D03*
X127650000Y-38935000D03*
X127650000Y-37665000D03*
X127650000Y-36395000D03*
D32*
X128412500Y-44800000D03*
X128412500Y-45200000D03*
X128412500Y-45600000D03*
X128412500Y-46000000D03*
X128412500Y-46400000D03*
X128412500Y-46800000D03*
X128412500Y-47200000D03*
X128412500Y-47600000D03*
X128412500Y-48000000D03*
X128412500Y-48400000D03*
X128412500Y-48800000D03*
X128412500Y-49200000D03*
X128412500Y-49600000D03*
X128412500Y-50000000D03*
D33*
X129250000Y-50837500D03*
X129650000Y-50837500D03*
X130050000Y-50837500D03*
X130450000Y-50837500D03*
X130850000Y-50837500D03*
X131250000Y-50837500D03*
X131650000Y-50837500D03*
X132050000Y-50837500D03*
X132450000Y-50837500D03*
X132850000Y-50837500D03*
X133250000Y-50837500D03*
X133650000Y-50837500D03*
X134050000Y-50837500D03*
X134450000Y-50837500D03*
D32*
X135287500Y-50000000D03*
X135287500Y-49600000D03*
X135287500Y-49200000D03*
X135287500Y-48800000D03*
X135287500Y-48400000D03*
X135287500Y-48000000D03*
X135287500Y-47600000D03*
X135287500Y-47200000D03*
X135287500Y-46800000D03*
X135287500Y-46400000D03*
X135287500Y-46000000D03*
X135287500Y-45600000D03*
X135287500Y-45200000D03*
X135287500Y-44800000D03*
D33*
X134450000Y-43962500D03*
X134050000Y-43962500D03*
X133650000Y-43962500D03*
X133250000Y-43962500D03*
X132850000Y-43962500D03*
X132450000Y-43962500D03*
X132050000Y-43962500D03*
X131650000Y-43962500D03*
X131250000Y-43962500D03*
X130850000Y-43962500D03*
X130450000Y-43962500D03*
X130050000Y-43962500D03*
X129650000Y-43962500D03*
X129250000Y-43962500D03*
D34*
X131850000Y-47400000D03*
D35*
X129900000Y-56150000D03*
X129900000Y-58350000D03*
X131600000Y-58350000D03*
X131600000Y-56150000D03*
D18*
X132700000Y-40190000D03*
X132700000Y-41210000D03*
D27*
X133100000Y-56770000D03*
X133100000Y-57730000D03*
D29*
X117800000Y-61050000D03*
X117800000Y-53050000D03*
X122300000Y-61050000D03*
X122300000Y-53050000D03*
D36*
X126980000Y-48133000D03*
X126020000Y-48133000D03*
D26*
X136620000Y-48400000D03*
X137580000Y-48400000D03*
D37*
X131400000Y-54660000D03*
X131400000Y-53640000D03*
D27*
X132420000Y-52820000D03*
X132420000Y-53780000D03*
D36*
X127080000Y-44000000D03*
X126120000Y-44000000D03*
M02*
