M48
; DRILL file {KiCad (6.0.0)} date Sun Nov  6 23:16:21 2022
; FORMAT={-:-/ absolute / inch / decimal}
; #@! TF.CreationDate,2022-11-06T23:16:21-06:00
; #@! TF.GenerationSoftware,Kicad,Pcbnew,(6.0.0)
; #@! TF.FileFunction,NonPlated,1,2,NPTH
FMAT,2
INCH
; #@! TA.AperFunction,NonPlated,NPTH,ComponentDrill
T1C0.0256
; #@! TA.AperFunction,NonPlated,NPTH,ComponentDrill
T2C0.0390
; #@! TA.AperFunction,NonPlated,NPTH,ComponentDrill
T3C0.0670
; #@! TA.AperFunction,NonPlated,NPTH,ComponentDrill
T4C0.1181
; #@! TA.AperFunction,NonPlated,NPTH,ComponentDrill
T5C0.1350
; #@! TA.AperFunction,NonPlated,NPTH,ComponentDrill
T6C0.1570
; #@! TA.AperFunction,NonPlated,NPTH,ComponentDrill
T7C0.2520
%
G90
G05
T1
X5.5949Y-1.2106
X5.8224Y-1.2106
T2
X2.0868Y-2.7264
X3.2323Y-2.7311
X4.2795Y-3.178
X4.9685Y-5.2685
X5.4343Y-3.9508
X5.6551Y-2.7287
X6.4819Y-3.5134
X6.7008Y-2.2748
X7.6177Y-3.5134
X7.8413Y-2.2701
X8.7677Y-3.5134
X8.9819Y-2.2795
T3
X2.0758Y-2.561
X2.0923Y-2.561
X2.4923Y-2.561
X2.5089Y-2.561
X3.2213Y-2.5657
X3.2378Y-2.5657
X3.6378Y-2.5657
X3.6543Y-2.5657
X4.2685Y-3.0126
X4.285Y-3.0126
X4.685Y-3.0126
X4.7016Y-3.0126
X4.9575Y-5.1031
X4.974Y-5.1031
X5.374Y-5.1031
X5.3906Y-5.1031
X5.4232Y-3.7854
X5.4398Y-3.7854
X5.6441Y-2.5634
X5.6606Y-2.5634
X5.8398Y-3.7854
X5.8563Y-3.7854
X6.0606Y-2.5634
X6.0772Y-2.5634
X6.4709Y-3.348
X6.4874Y-3.348
X6.6898Y-2.1094
X6.7063Y-2.1094
X6.8874Y-3.348
X6.9039Y-3.348
X7.1063Y-2.1094
X7.1228Y-2.1094
X7.6067Y-3.348
X7.6232Y-3.348
X7.8303Y-2.1047
X7.8469Y-2.1047
X8.0232Y-3.348
X8.0398Y-3.348
X8.2469Y-2.1047
X8.2634Y-2.1047
X8.7567Y-3.348
X8.7732Y-3.348
X8.9709Y-2.1142
X8.9874Y-2.1142
X9.1732Y-3.348
X9.1898Y-3.348
X9.3874Y-2.1142
X9.4039Y-2.1142
T4
X2.1423Y-2.461
X2.2923Y-2.3268
X2.3923Y-2.361
X2.4892Y-2.4134
X3.2878Y-2.4657
X3.4378Y-2.3315
X3.5378Y-2.3657
X3.6346Y-2.4181
X4.335Y-2.9126
X4.485Y-2.7783
X4.585Y-2.8126
X4.6819Y-2.865
X5.024Y-5.0031
X5.174Y-4.8689
X5.274Y-4.9031
X5.3709Y-4.9555
X5.4898Y-3.6854
X5.6398Y-3.5512
X5.7106Y-2.4634
X5.7398Y-3.5854
X5.8366Y-3.6378
X5.8606Y-2.3291
X5.9606Y-2.3634
X6.0575Y-2.4157
X6.5374Y-3.248
X6.6874Y-3.1138
X6.7563Y-2.0094
X6.7874Y-3.148
X6.8843Y-3.2004
X6.9063Y-1.8752
X7.0063Y-1.9094
X7.1031Y-1.9618
X7.6732Y-3.248
X7.8232Y-3.1138
X7.8969Y-2.0047
X7.9232Y-3.148
X8.0201Y-3.2004
X8.0469Y-1.8705
X8.1469Y-1.9047
X8.2437Y-1.9571
X8.8232Y-3.248
X8.9732Y-3.1138
X9.0374Y-2.0142
X9.0732Y-3.148
X9.1701Y-3.2004
X9.1874Y-1.8799
X9.2874Y-1.9142
X9.3843Y-1.9665
T5
X2.2923Y-2.561
X3.4378Y-2.5657
X4.485Y-3.0126
X5.174Y-5.1031
X5.6398Y-3.7854
X5.8606Y-2.5634
X6.6874Y-3.348
X6.9063Y-2.1094
X7.8232Y-3.348
X8.0469Y-2.1047
X8.9732Y-3.348
X9.1874Y-2.1142
T6
X2.2923Y-2.561
X3.4378Y-2.5657
X4.485Y-3.0126
X5.174Y-5.1031
X5.6398Y-3.7854
X5.8606Y-2.5634
X6.6874Y-3.348
X6.9063Y-2.1094
X7.8232Y-3.348
X8.0469Y-2.1047
X8.9732Y-3.348
X9.1874Y-2.1142
T7
X1.8504Y-1.4567
X1.8504Y-5.6299
X5.2559Y-3.0709
X5.9055Y-5.6299
X6.1654Y-1.4567
X9.5669Y-1.4567
X9.5669Y-5.6299
T0
M30
