%TF.GenerationSoftware,KiCad,Pcbnew,(6.0.0)*%
%TF.CreationDate,2022-11-06T23:16:27-06:00*%
%TF.ProjectId,Flatbox-rev4,466c6174-626f-4782-9d72-6576342e6b69,rev?*%
%TF.SameCoordinates,Original*%
%TF.FileFunction,Soldermask,Bot*%
%TF.FilePolarity,Negative*%
%FSLAX46Y46*%
G04 Gerber Fmt 4.6, Leading zero omitted, Abs format (unit mm)*
G04 Created by KiCad (PCBNEW (6.0.0)) date 2022-11-06 23:16:27*
%MOMM*%
%LPD*%
G01*
G04 APERTURE LIST*
%ADD10O,1.600000X2.000000*%
%ADD11C,3.000000*%
%ADD12C,1.701800*%
%ADD13C,3.987800*%
%ADD14C,3.429000*%
%ADD15C,0.990600*%
%ADD16R,2.600000X2.600000*%
%ADD17R,2.550000X2.500000*%
%ADD18C,6.400000*%
%ADD19C,2.000000*%
%ADD20C,0.650000*%
%ADD21O,1.000000X1.600000*%
%ADD22O,1.000000X2.100000*%
%ADD23R,1.800000X0.820000*%
G04 APERTURE END LIST*
D10*
X112331000Y-91254000D03*
X109791000Y-91254000D03*
X107251000Y-91254000D03*
X104711000Y-91254000D03*
D11*
X87320000Y-59220000D03*
D12*
X82240000Y-65170000D03*
D11*
X89860000Y-60090000D03*
X83510000Y-62630000D03*
D13*
X87320000Y-65170000D03*
D12*
X92820000Y-65170000D03*
X92400000Y-65170000D03*
D11*
X92320000Y-61420000D03*
D14*
X87320000Y-65170000D03*
D15*
X82100000Y-69370000D03*
D12*
X81820000Y-65170000D03*
D16*
X95595000Y-61420000D03*
D17*
X93610000Y-60090000D03*
D16*
X84045000Y-59220000D03*
D17*
X79760000Y-62630000D03*
D12*
X108840000Y-76520000D03*
D11*
X118920000Y-72770000D03*
D12*
X119000000Y-76520000D03*
D11*
X116460000Y-71440000D03*
X110110000Y-73980000D03*
D15*
X108700000Y-80720000D03*
D14*
X113920000Y-76520000D03*
D12*
X108420000Y-76520000D03*
X119420000Y-76520000D03*
D13*
X113920000Y-76520000D03*
D11*
X113920000Y-70570000D03*
D16*
X122195000Y-72770000D03*
D17*
X120210000Y-71440000D03*
X106360000Y-73980000D03*
D16*
X110645000Y-70570000D03*
D11*
X127610000Y-127080000D03*
D15*
X126200000Y-133820000D03*
D11*
X133960000Y-124540000D03*
D12*
X125920000Y-129620000D03*
D14*
X131420000Y-129620000D03*
D13*
X131420000Y-129620000D03*
D12*
X126340000Y-129620000D03*
X136920000Y-129620000D03*
X136500000Y-129620000D03*
D11*
X131420000Y-123670000D03*
X136420000Y-125870000D03*
D17*
X137710000Y-124540000D03*
D16*
X139695000Y-125870000D03*
X128145000Y-123670000D03*
D17*
X123860000Y-127080000D03*
D12*
X153940000Y-65110000D03*
D11*
X148860000Y-59160000D03*
D15*
X143640000Y-69310000D03*
D12*
X154360000Y-65110000D03*
D13*
X148860000Y-65110000D03*
D11*
X151400000Y-60030000D03*
D12*
X143360000Y-65110000D03*
D11*
X145050000Y-62570000D03*
X153860000Y-61360000D03*
D12*
X143780000Y-65110000D03*
D14*
X148860000Y-65110000D03*
D16*
X157135000Y-61360000D03*
D17*
X155150000Y-60030000D03*
D16*
X145585000Y-59160000D03*
D17*
X141300000Y-62570000D03*
D11*
X177960000Y-48500000D03*
D12*
X169920000Y-53580000D03*
D15*
X170200000Y-57780000D03*
D14*
X175420000Y-53580000D03*
D11*
X175420000Y-47630000D03*
D13*
X175420000Y-53580000D03*
D11*
X171610000Y-51040000D03*
D12*
X170340000Y-53580000D03*
X180500000Y-53580000D03*
X180920000Y-53580000D03*
D11*
X180420000Y-49830000D03*
D16*
X183695000Y-49830000D03*
D17*
X181710000Y-48500000D03*
X167860000Y-51040000D03*
D16*
X172145000Y-47630000D03*
D15*
X199170000Y-57660000D03*
D13*
X204390000Y-53460000D03*
D11*
X204390000Y-47510000D03*
X206930000Y-48380000D03*
X200580000Y-50920000D03*
D14*
X204390000Y-53460000D03*
D12*
X209890000Y-53460000D03*
X198890000Y-53460000D03*
X209470000Y-53460000D03*
X199310000Y-53460000D03*
D11*
X209390000Y-49710000D03*
D17*
X210680000Y-48380000D03*
D16*
X212665000Y-49710000D03*
D17*
X196830000Y-50920000D03*
D16*
X201115000Y-47510000D03*
D11*
X238360000Y-49950000D03*
X233360000Y-47750000D03*
D13*
X233360000Y-53700000D03*
D11*
X235900000Y-48620000D03*
X229550000Y-51160000D03*
D14*
X233360000Y-53700000D03*
D12*
X227860000Y-53700000D03*
X238440000Y-53700000D03*
X238860000Y-53700000D03*
X228280000Y-53700000D03*
D15*
X228140000Y-57900000D03*
D16*
X241635000Y-49950000D03*
D17*
X239650000Y-48620000D03*
D16*
X230085000Y-47750000D03*
D17*
X225800000Y-51160000D03*
D11*
X148250000Y-92400000D03*
D12*
X148750000Y-96150000D03*
D13*
X143250000Y-96150000D03*
D12*
X137750000Y-96150000D03*
D11*
X143250000Y-90200000D03*
D15*
X138030000Y-100350000D03*
D12*
X138170000Y-96150000D03*
X148330000Y-96150000D03*
D14*
X143250000Y-96150000D03*
D11*
X139440000Y-93610000D03*
X145790000Y-91070000D03*
D17*
X149540000Y-91070000D03*
D16*
X151525000Y-92400000D03*
X139975000Y-90200000D03*
D17*
X135690000Y-93610000D03*
D11*
X174860000Y-81290000D03*
D13*
X169860000Y-85040000D03*
D14*
X169860000Y-85040000D03*
D11*
X172400000Y-79960000D03*
D12*
X174940000Y-85040000D03*
X164780000Y-85040000D03*
D11*
X169860000Y-79090000D03*
D15*
X164640000Y-89240000D03*
D11*
X166050000Y-82500000D03*
D12*
X175360000Y-85040000D03*
X164360000Y-85040000D03*
D17*
X176150000Y-79960000D03*
D16*
X178135000Y-81290000D03*
D17*
X162300000Y-82500000D03*
D16*
X166585000Y-79090000D03*
D11*
X194900000Y-82500000D03*
D12*
X203790000Y-85040000D03*
D11*
X203710000Y-81290000D03*
D13*
X198710000Y-85040000D03*
D12*
X193210000Y-85040000D03*
D15*
X193490000Y-89240000D03*
D11*
X198710000Y-79090000D03*
D14*
X198710000Y-85040000D03*
D12*
X204210000Y-85040000D03*
X193630000Y-85040000D03*
D11*
X201250000Y-79960000D03*
D16*
X206985000Y-81290000D03*
D17*
X205000000Y-79960000D03*
X191150000Y-82500000D03*
D16*
X195435000Y-79090000D03*
D14*
X227920000Y-85040000D03*
D12*
X222840000Y-85040000D03*
D11*
X230460000Y-79960000D03*
D12*
X222420000Y-85040000D03*
D13*
X227920000Y-85040000D03*
D12*
X233420000Y-85040000D03*
D15*
X222700000Y-89240000D03*
D11*
X224110000Y-82500000D03*
X232920000Y-81290000D03*
D12*
X233000000Y-85040000D03*
D11*
X227920000Y-79090000D03*
D16*
X236195000Y-81290000D03*
D17*
X234210000Y-79960000D03*
D16*
X224645000Y-79090000D03*
D17*
X220360000Y-82500000D03*
D18*
X47000000Y-37000000D03*
X47000000Y-143000000D03*
X243000000Y-143000000D03*
X243000000Y-37000000D03*
D15*
X53005000Y-69250000D03*
D12*
X53145000Y-65050000D03*
D13*
X58225000Y-65050000D03*
D11*
X58225000Y-59100000D03*
X63225000Y-61300000D03*
X54415000Y-62510000D03*
D12*
X52725000Y-65050000D03*
X63725000Y-65050000D03*
D11*
X60765000Y-59970000D03*
D14*
X58225000Y-65050000D03*
D12*
X63305000Y-65050000D03*
D16*
X66500000Y-61300000D03*
D17*
X64515000Y-59970000D03*
D16*
X54950000Y-59100000D03*
D17*
X50665000Y-62510000D03*
D18*
X156600000Y-37000000D03*
D19*
X88500000Y-43000000D03*
X88500000Y-36500000D03*
X93000000Y-43000000D03*
X93000000Y-36500000D03*
X65500000Y-43000000D03*
X65500000Y-36500000D03*
X70000000Y-36500000D03*
X70000000Y-43000000D03*
X98500000Y-36500000D03*
X98500000Y-43000000D03*
X103000000Y-36500000D03*
X103000000Y-43000000D03*
X55500000Y-36500000D03*
X55500000Y-43000000D03*
X60000000Y-43000000D03*
X60000000Y-36500000D03*
X75500000Y-43000000D03*
X75500000Y-36500000D03*
X80000000Y-36500000D03*
X80000000Y-43000000D03*
X108500000Y-36500000D03*
X108500000Y-43000000D03*
X113000000Y-36500000D03*
X113000000Y-43000000D03*
D18*
X133500000Y-78000000D03*
X150000000Y-143000000D03*
D20*
X147890000Y-30750000D03*
X142110000Y-30750000D03*
D21*
X140680000Y-27100000D03*
X149320000Y-27100000D03*
D22*
X149320000Y-31280000D03*
X140680000Y-31280000D03*
D23*
X128945000Y-133616000D03*
X128945000Y-135116000D03*
X133945000Y-135116000D03*
X133945000Y-133616000D03*
X140756000Y-100088000D03*
X140756000Y-101588000D03*
X145756000Y-101588000D03*
X145756000Y-100088000D03*
X225211000Y-89039000D03*
X225211000Y-90539000D03*
X230211000Y-90539000D03*
X230211000Y-89039000D03*
X167299000Y-89039000D03*
X167299000Y-90539000D03*
X172299000Y-90539000D03*
X172299000Y-89039000D03*
X196255000Y-89039000D03*
X196255000Y-90539000D03*
X201255000Y-90539000D03*
X201255000Y-89039000D03*
X235799000Y-59170000D03*
X235799000Y-57670000D03*
X230799000Y-57670000D03*
X230799000Y-59170000D03*
X178014000Y-59043000D03*
X178014000Y-57543000D03*
X173014000Y-57543000D03*
X173014000Y-59043000D03*
X206843000Y-58916000D03*
X206843000Y-57416000D03*
X201843000Y-57416000D03*
X201843000Y-58916000D03*
X89876000Y-70600000D03*
X89876000Y-69100000D03*
X84876000Y-69100000D03*
X84876000Y-70600000D03*
X151344000Y-70600000D03*
X151344000Y-69100000D03*
X146344000Y-69100000D03*
X146344000Y-70600000D03*
X60666000Y-70473000D03*
X60666000Y-68973000D03*
X55666000Y-68973000D03*
X55666000Y-70473000D03*
X116419000Y-82030000D03*
X116419000Y-80530000D03*
X111419000Y-80530000D03*
X111419000Y-82030000D03*
M02*
